<svg width="30" height="30" viewBox="0 0 24 24" fill="none" xmlns="http://www.w3.org/2000/svg">
  <path
    d="M12 2C6.48 2 2 6.48 2 12C2 17.52 6.48 22 12 22C17.52 22 22 17.52 22 12C22 6.48 17.52 2 12 2ZM12 20C7.58 20 4 16.42 4 12C4 7.58 7.58 4 12 4C16.42 4 20 7.58 20 12C20 16.42 16.42 20 12 20Z"
    fill="#70FF00"
    opacity="0.2"
  />
  <path
    d="M15 4.5C13.5 5.5 12.5 7.5 12.5 9.5C12.5 12.5 14.5 15 17 15C19 15 21 14 22 12.5C21 17 16.5 20.5 11.5 20.5C6.5 20.5 2.5 16.5 2.5 11.5C2.5 6.5 6.5 2.5 11 2.5C13 2.5 15 3.5 15 4.5Z"
    fill="#70FF00"
  />
</svg>